<?xml version="1.0" encoding="UTF-8" standalone="no"?>
<svg
   version="1.1"
   width="1708px"
   height="2154px"
   style="shape-rendering:geometricPrecision; text-rendering:geometricPrecision; image-rendering:optimizeQuality; fill-rule:evenodd; clip-rule:evenodd"
   id="svg314"
   sodipodi:docname="vadergrill_alt.svg"
   inkscape:version="1.2.1 (9c6d41e410, 2022-07-14)"
   xmlns:inkscape="http://www.inkscape.org/namespaces/inkscape"
   xmlns:sodipodi="http://sodipodi.sourceforge.net/DTD/sodipodi-0.dtd"
   xmlns="http://www.w3.org/2000/svg"
   xmlns:svg="http://www.w3.org/2000/svg">
  <defs
     id="defs318" />
  <sodipodi:namedview
     id="namedview316"
     pagecolor="#ffffff"
     bordercolor="#000000"
     borderopacity="0.25"
     inkscape:showpageshadow="2"
     inkscape:pageopacity="0.0"
     inkscape:pagecheckerboard="0"
     inkscape:deskcolor="#d1d1d1"
     showgrid="false"
     inkscape:zoom="2.111472"
     inkscape:cx="605.50174"
     inkscape:cy="525.4628"
     inkscape:window-width="1291"
     inkscape:window-height="981"
     inkscape:window-x="619"
     inkscape:window-y="0"
     inkscape:window-maximized="0"
     inkscape:current-layer="svg314" />
  <g
     id="g4">
    <path
       style="opacity:0.998"
       fill="#000000"
       d="M -0.5,-0.5 C 566.833,-0.5 1134.17,-0.5 1701.5,-0.5C 1703.18,1.00751 1705.18,2.00751 1707.5,2.5C 1707.5,456.833 1707.5,911.167 1707.5,1365.5C 1700.2,1389.66 1693.04,1413.99 1686,1438.5C 1633.92,1599.22 1545.76,1736.39 1421.5,1850C 1326.38,1934.67 1220.72,2004 1104.5,2058C 1024.52,2095.16 942.516,2127 858.5,2153.5C 855.167,2153.5 851.833,2153.5 848.5,2153.5C 742.198,2120.45 639.531,2078.28 540.5,2027C 425.874,1967.4 323.374,1891.24 233,1798.5C 118.516,1676.92 41.5158,1534.25 2,1370.5C 1.62638,1368.51 0.793048,1366.84 -0.5,1365.5C -0.5,910.167 -0.5,454.833 -0.5,-0.5 Z"
       id="path2" />
  </g>
  <g
     id="g8">
    <path
       style="opacity:1"
       fill="#bb2400"
       d="M 295.5,89.5 C 297.833,89.5 300.167,89.5 302.5,89.5C 321.874,140.92 342.374,191.92 364,242.5C 369.035,250.269 376.202,254.269 385.5,254.5C 385.5,255.833 385.5,257.167 385.5,258.5C 363.167,258.5 340.833,258.5 318.5,258.5C 318.5,257.167 318.5,255.833 318.5,254.5C 323.355,254.08 328.022,252.913 332.5,251C 334.592,249.147 335.592,246.814 335.5,244C 331.844,230.512 327.177,217.345 321.5,204.5C 300.167,203.167 278.833,203.167 257.5,204.5C 251.368,216.757 246.368,229.424 242.5,242.5C 243.324,249.488 247.324,253.322 254.5,254C 256.81,254.497 259.143,254.663 261.5,254.5C 261.5,255.833 261.5,257.167 261.5,258.5C 243.833,258.5 226.167,258.5 208.5,258.5C 208.238,257.022 208.571,255.689 209.5,254.5C 217.964,253.862 224.13,249.862 228,242.5C 251.064,191.709 273.564,140.709 295.5,89.5 Z"
       id="path6" />
  </g>
  <g
     id="g12">
    <path
       style="opacity:1"
       fill="#bb2400"
       d="M 1034.5,89.5 C 1042.84,89.3336 1051.17,89.5003 1059.5,90C 1071,92.2074 1082.33,95.0407 1093.5,98.5C 1098.43,97.6696 1100.77,94.6696 1100.5,89.5C 1101.83,89.5 1103.17,89.5 1104.5,89.5C 1105.88,106.828 1107.22,124.162 1108.5,141.5C 1107.02,141.762 1105.69,141.429 1104.5,140.5C 1091.5,103.831 1066.16,90.6643 1028.5,101C 1010.69,109.153 998.854,122.653 993,141.5C 983.638,174.635 988.638,205.302 1008,233.5C 1030.92,256.856 1056.92,260.856 1086,245.5C 1086.67,225.167 1086.67,204.833 1086,184.5C 1085.04,180.532 1082.87,177.365 1079.5,175C 1074.61,173.518 1069.61,172.685 1064.5,172.5C 1064.5,171.167 1064.5,169.833 1064.5,168.5C 1086.17,168.5 1107.83,168.5 1129.5,168.5C 1129.5,169.833 1129.5,171.167 1129.5,172.5C 1121.34,171.164 1115.5,174.164 1112,181.5C 1110.86,203.778 1110.03,226.111 1109.5,248.5C 1076.3,265.007 1042.3,266.84 1007.5,254C 976.857,238.067 961.19,212.734 960.5,178C 962.432,141.785 979.099,114.785 1010.5,97C 1018.4,93.7535 1026.4,91.2535 1034.5,89.5 Z"
       id="path10" />
  </g>
  <g
     id="g16">
    <path
       style="opacity:1"
       fill="#bb2400"
       d="M 27.5,93.5 C 50.5,93.5 73.5,93.5 96.5,93.5C 96.5,94.8333 96.5,96.1667 96.5,97.5C 91.2745,97.7117 86.2745,98.8784 81.5,101C 80.2986,101.903 79.4652,103.069 79,104.5C 78.0957,112.221 79.4291,119.554 83,126.5C 97.3333,158.833 111.667,191.167 126,223.5C 141.981,186.555 156.981,149.221 171,111.5C 171.431,105.882 168.931,102.049 163.5,100C 160.51,99.1026 157.51,98.2692 154.5,97.5C 153.571,96.3112 153.238,94.9778 153.5,93.5C 170.833,93.5 188.167,93.5 205.5,93.5C 205.762,94.9778 205.429,96.3112 204.5,97.5C 196.359,98.9902 190.192,103.323 186,110.5C 164.346,160.63 143.179,210.963 122.5,261.5C 118.018,263.618 115.185,262.284 114,257.5C 92,207.5 70,157.5 48,107.5C 42.9444,101.389 36.4444,98.0553 28.5,97.5C 27.5713,96.3112 27.238,94.9778 27.5,93.5 Z"
       id="path14" />
  </g>
  <g
     id="g20">
    <path
       style="opacity:1"
       fill="#bc2400"
       d="M 391.5,93.5 C 420.169,93.3334 448.835,93.5 477.5,94C 518.126,93.9961 544.626,113.163 557,151.5C 562.429,174.831 559.762,197.164 549,218.5C 536.529,239.007 518.362,251.507 494.5,256C 488.527,256.907 482.527,257.573 476.5,258C 448.169,258.5 419.835,258.667 391.5,258.5C 391.5,257.167 391.5,255.833 391.5,254.5C 396.566,254.66 401.566,254.16 406.5,253C 410.085,251.084 412.585,248.251 414,244.5C 415.146,221.715 415.646,198.881 415.5,176C 415.641,152.793 415.141,129.627 414,106.5C 412.737,102.781 410.237,100.281 406.5,99C 401.566,97.8399 396.566,97.3399 391.5,97.5C 391.5,96.1667 391.5,94.8333 391.5,93.5 Z"
       id="path18" />
  </g>
  <g
     id="g24">
    <path
       style="opacity:1"
       fill="#bc2400"
       d="M 573.5,93.5 C 615.833,93.5 658.167,93.5 700.5,93.5C 701.609,105.46 702.276,117.46 702.5,129.5C 700.712,129.785 699.045,129.452 697.5,128.5C 696.355,122.606 694.522,116.939 692,111.5C 688.456,106.478 683.623,103.644 677.5,103C 658.836,102.5 640.17,102.333 621.5,102.5C 621.5,124.167 621.5,145.833 621.5,167.5C 635.504,167.667 649.504,167.5 663.5,167C 670.992,166.844 676.158,163.344 679,156.5C 680.157,152.218 680.99,147.884 681.5,143.5C 682.833,143.5 684.167,143.5 685.5,143.5C 685.5,162.5 685.5,181.5 685.5,200.5C 684.167,200.5 682.833,200.5 681.5,200.5C 680.9,195.802 680.067,191.136 679,186.5C 676.168,181.006 671.668,177.839 665.5,177C 650.837,176.5 636.17,176.333 621.5,176.5C 621.031,199.566 621.531,222.566 623,245.5C 624.214,247.049 625.714,248.215 627.5,249C 643.167,249.667 658.833,249.667 674.5,249C 684.752,248.291 692.918,243.791 699,235.5C 703.064,229.764 706.73,223.764 710,217.5C 711.726,216.424 713.559,216.257 715.5,217C 710.74,230.446 706.073,243.946 701.5,257.5C 658.839,258.5 616.172,258.833 573.5,258.5C 573.5,257.167 573.5,255.833 573.5,254.5C 580.722,255.406 587.389,253.906 593.5,250C 595.068,247.696 596.235,245.196 597,242.5C 597.167,220.333 597.333,198.167 597.5,176C 597.647,152.452 597.147,128.952 596,105.5C 594.878,103.376 593.378,101.543 591.5,100C 585.659,98.0491 579.659,97.2158 573.5,97.5C 573.5,96.1667 573.5,94.8333 573.5,93.5 Z"
       id="path22" />
  </g>
  <g
     id="g28">
    <path
       style="opacity:1"
       fill="#bc2400"
       d="M 725.5,93.5 C 751.835,93.3334 778.169,93.5 804.5,94C 817.619,94.2638 829.619,97.9305 840.5,105C 857.603,121.114 860.103,139.281 848,159.5C 839.427,169.537 828.594,175.537 815.5,177.5C 815.351,178.552 815.517,179.552 816,180.5C 830.244,199.322 844.244,218.322 858,237.5C 866.656,248.078 877.822,253.745 891.5,254.5C 891.5,255.833 891.5,257.167 891.5,258.5C 876.496,258.667 861.496,258.5 846.5,258C 828,232.833 809.5,207.667 791,182.5C 785.259,181.525 779.425,181.192 773.5,181.5C 773.097,202.533 773.597,223.533 775,244.5C 776.415,249.314 779.582,252.48 784.5,254C 788.821,254.499 793.154,254.666 797.5,254.5C 797.5,255.833 797.5,257.167 797.5,258.5C 773.5,258.5 749.5,258.5 725.5,258.5C 725.5,257.167 725.5,255.833 725.5,254.5C 730.566,254.66 735.566,254.16 740.5,253C 744.085,251.084 746.585,248.251 748,244.5C 749.141,221.54 749.641,198.54 749.5,175.5C 749.641,152.46 749.141,129.46 748,106.5C 746.737,102.781 744.237,100.281 740.5,99C 735.566,97.8399 730.566,97.3399 725.5,97.5C 725.5,96.1667 725.5,94.8333 725.5,93.5 Z"
       id="path26" />
  </g>
  <g
     id="g32">
    <path
       style="opacity:1"
       fill="#bc2400"
       d="M 1137.5,93.5 C 1163.84,93.3334 1190.17,93.5 1216.5,94C 1229.62,94.2638 1241.62,97.9305 1252.5,105C 1269.6,121.114 1272.1,139.281 1260,159.5C 1251.43,169.537 1240.59,175.537 1227.5,177.5C 1227.35,178.552 1227.52,179.552 1228,180.5C 1242.24,199.322 1256.24,218.322 1270,237.5C 1278.66,248.078 1289.82,253.745 1303.5,254.5C 1303.5,255.833 1303.5,257.167 1303.5,258.5C 1288.5,258.667 1273.5,258.5 1258.5,258C 1240,232.833 1221.5,207.667 1203,182.5C 1197.26,181.525 1191.43,181.192 1185.5,181.5C 1185.1,202.533 1185.6,223.533 1187,244.5C 1188.41,249.314 1191.58,252.48 1196.5,254C 1200.82,254.499 1205.15,254.666 1209.5,254.5C 1209.5,255.833 1209.5,257.167 1209.5,258.5C 1185.5,258.5 1161.5,258.5 1137.5,258.5C 1137.5,257.167 1137.5,255.833 1137.5,254.5C 1142.57,254.66 1147.57,254.16 1152.5,253C 1156.08,251.084 1158.58,248.251 1160,244.5C 1161.14,221.54 1161.64,198.54 1161.5,175.5C 1161.64,152.46 1161.14,129.46 1160,106.5C 1158.74,102.781 1156.24,100.281 1152.5,99C 1147.57,97.8399 1142.57,97.3399 1137.5,97.5C 1137.5,96.1667 1137.5,94.8333 1137.5,93.5 Z"
       id="path30" />
  </g>
  <g
     id="g36">
    <path
       style="opacity:1"
       fill="#bd2400"
       d="M 1306.5,93.5 C 1330.5,93.5 1354.5,93.5 1378.5,93.5C 1378.5,94.8333 1378.5,96.1667 1378.5,97.5C 1371.62,96.5924 1365.29,97.9258 1359.5,101.5C 1358.14,103.028 1356.97,104.695 1356,106.5C 1354.86,129.127 1354.36,151.793 1354.5,174.5C 1354.38,198.194 1354.88,221.861 1356,245.5C 1361.43,253.286 1368.93,256.286 1378.5,254.5C 1378.5,255.833 1378.5,257.167 1378.5,258.5C 1354.5,258.5 1330.5,258.5 1306.5,258.5C 1306.5,257.167 1306.5,255.833 1306.5,254.5C 1314.07,255.534 1320.9,253.868 1327,249.5C 1327.86,247.913 1328.53,246.246 1329,244.5C 1330.15,221.215 1330.65,197.881 1330.5,174.5C 1330.33,152.5 1330.17,130.5 1330,108.5C 1328.53,103.693 1325.36,100.526 1320.5,99C 1315.93,97.6908 1311.27,97.1908 1306.5,97.5C 1306.5,96.1667 1306.5,94.8333 1306.5,93.5 Z"
       id="path34" />
  </g>
  <g
     id="g40">
    <path
       style="opacity:1"
       fill="#bc2400"
       d="M 1388.5,93.5 C 1413.5,93.5 1438.5,93.5 1463.5,93.5C 1463.5,94.8333 1463.5,96.1667 1463.5,97.5C 1453.89,96.1101 1445.72,98.7768 1439,105.5C 1438.14,107.087 1437.47,108.754 1437,110.5C 1436.04,154.529 1436.37,198.529 1438,242.5C 1439.25,245.381 1441.42,247.214 1444.5,248C 1457.83,248.667 1471.17,248.667 1484.5,248C 1500.16,247.929 1511.66,241.096 1519,227.5C 1521.27,223.286 1523.27,218.953 1525,214.5C 1526.87,213.328 1528.7,213.495 1530.5,215C 1525.95,228.69 1521.78,242.523 1518,256.5C 1475.05,258.491 1431.89,259.158 1388.5,258.5C 1388.5,257.167 1388.5,255.833 1388.5,254.5C 1393.57,254.66 1398.57,254.16 1403.5,253C 1407.08,251.084 1409.58,248.251 1411,244.5C 1412.12,221.027 1412.62,197.527 1412.5,174C 1412.64,151.46 1412.14,128.96 1411,106.5C 1409.74,102.781 1407.24,100.281 1403.5,99C 1398.57,97.8399 1393.57,97.3399 1388.5,97.5C 1388.5,96.1667 1388.5,94.8333 1388.5,93.5 Z"
       id="path38" />
  </g>
  <g
     id="g44">
    <path
       style="opacity:1"
       fill="#bc2400"
       d="M 1541.5,93.5 C 1566.5,93.5 1591.5,93.5 1616.5,93.5C 1616.5,94.8333 1616.5,96.1667 1616.5,97.5C 1606.89,96.1101 1598.72,98.7768 1592,105.5C 1591.14,107.087 1590.47,108.754 1590,110.5C 1589.04,154.529 1589.37,198.529 1591,242.5C 1592.25,245.381 1594.42,247.214 1597.5,248C 1610.83,248.667 1624.17,248.667 1637.5,248C 1653.16,247.929 1664.66,241.096 1672,227.5C 1674.27,223.286 1676.27,218.953 1678,214.5C 1679.87,213.328 1681.7,213.495 1683.5,215C 1678.95,228.69 1674.78,242.523 1671,256.5C 1628.05,258.491 1584.89,259.158 1541.5,258.5C 1541.5,257.167 1541.5,255.833 1541.5,254.5C 1546.57,254.66 1551.57,254.16 1556.5,253C 1560.08,251.084 1562.58,248.251 1564,244.5C 1565.12,221.027 1565.62,197.527 1565.5,174C 1565.64,151.46 1565.14,128.96 1564,106.5C 1562.74,102.781 1560.24,100.281 1556.5,99C 1551.57,97.8399 1546.57,97.3399 1541.5,97.5C 1541.5,96.1667 1541.5,94.8333 1541.5,93.5 Z"
       id="path42" />
  </g>
  <g
     id="g48">
    <path
       style="opacity:1"
       fill="#000000"
       d="M 454.5,101.5 C 491.25,98.4752 515.75,114.142 528,148.5C 534.492,173.065 532.159,196.732 521,219.5C 505.569,242.961 483.735,253.128 455.5,250C 450.186,248.97 444.853,248.137 439.5,247.5C 439.5,199.833 439.5,152.167 439.5,104.5C 444.744,104.118 449.744,103.118 454.5,101.5 Z"
       id="path46" />
  </g>
  <g
     id="g52">
    <path
       style="opacity:1"
       fill="#010000"
       d="M 785.5,101.5 C 806.95,99.1595 820.783,108.16 827,128.5C 829.314,151.175 819.48,165.341 797.5,171C 789.541,172.164 781.541,172.664 773.5,172.5C 773.333,150.164 773.5,127.831 774,105.5C 777.9,104.075 781.733,102.742 785.5,101.5 Z"
       id="path50" />
  </g>
  <g
     id="g56">
    <path
       style="opacity:1"
       fill="#010000"
       d="M 1197.5,101.5 C 1218.95,99.1595 1232.78,108.16 1239,128.5C 1241.31,151.175 1231.48,165.341 1209.5,171C 1201.54,172.164 1193.54,172.664 1185.5,172.5C 1185.33,150.164 1185.5,127.831 1186,105.5C 1189.9,104.075 1193.73,102.742 1197.5,101.5 Z"
       id="path54" />
  </g>
  <g
     id="g60">
    <path
       style="opacity:1"
       fill="#030000"
       d="M 290.5,128.5 C 299.87,150.088 308.87,171.921 317.5,194C 299.17,194.5 280.836,194.667 262.5,194.5C 271.635,172.43 280.969,150.43 290.5,128.5 Z"
       id="path58" />
  </g>
  <g
     id="g64">
    <path
       style="opacity:1"
       fill="#c31504"
       d="M 856.5,372.5 C 1133.5,372.5 1410.5,372.5 1687.5,372.5C 1687.5,700.5 1687.5,1028.5 1687.5,1356.5C 1644.43,1543.23 1553.09,1701.39 1413.5,1831C 1316.5,1918.54 1208.17,1989.54 1088.5,2044C 1013.71,2078.32 937.047,2107.82 858.5,2132.5C 856.501,1950.84 855.835,1768.84 856.5,1586.5C 856.5,1181.83 856.5,777.167 856.5,372.5 Z"
       id="path62" />
  </g>
  <g
     id="g68"
     transform="translate(20)">
    <path
       style="opacity:1"
       fill="#c01504"
       d="m 576.5119,422.09969 c 32.18237,15.30761 82.50628,69.36271 101.43722,96.36919 6.39843,9.12787 -8.13035,27.75365 -67.34825,81.83617 -24.16715,22.07138 -32.21118,26.46884 -46.11275,36.56447 -11.90223,8.64366 -53.19914,0.5248 -77.10652,-6.72472 -20.672,21.339 -41.005,43.005 -61,65 22.855,22.355 46.3064,44.5442 70.1184,65.8552 12.841,7.254 25.841,14.254 39,21 10.746,2.022 20.413,6.356 29,13 48.833,49.5 97.667,99 146.5,148.5 7.386,16.942 2.886,29.775 -13.5,38.5 -5.619,1.299 -11.286,1.632 -17,1 -3.272,-1.608 -6.272,-3.608 -9,-6 C 619.093,931.382 566.593,885.882 514,840.5 c -4.652,-9.931 -9.319,-19.931 -14,-30 -6.667,-10.667 -13.333,-21.333 -20,-32 -23.333,-22 -46.667,-44 -70,-66 -25,26.333 -50,52.667 -75,79 -10.291,17.248 -18.958,35.248 -26,54 -1.667,2.333 -3.333,4.667 -5,7 -45.47,43.136 -90.637,86.636 -135.5,130.5 -11.7,4.898 -21.867,2.731 -30.5,-6.5 -4.977,-8.392 -5.644,-17.058 -2,-26 42.5,-47.833 85,-95.667 127.5,-143.5 3.002,-2.503 6.335,-4.503 10,-6 5.828,-1.943 11.495,-4.276 17,-7 9.333,-5.667 18.667,-11.333 28,-17 25.515,-26.015 50.848,-52.181 76,-78.5 -29.186,-28.687 -58.853,-56.854 -89,-84.5 -15.604,-9.97 -31.937,-18.636 -49,-26 -11.589,-5.933 -22.922,-12.266 -34,-19 -23.725,-18.056 -45.225,-38.556 -64.5,-61.5 -18.297,-21.273 -35.631,-43.273 -52,-66 -0.783,-1.819 -0.283,-3.152 1.5,-4 14.489,15.324 28.822,30.824 43,46.5 23.469,20.475 47.803,39.808 73,58 10.79,8.228 22.79,14.061 36,17.5 1.6,-0.051 3.1,-0.384 4.5,-1 0.667,-2.667 0.667,-5.333 0,-8 -4.063,-8.459 -8.397,-16.793 -13,-25 -21.977,-28.32 -45.81,-55.153 -71.5,-80.5 -14.189,-11.69 -28.522,-23.19 -43,-34.5 -0.929,-1.189 -1.262,-2.522 -1,-4 1.373,-0.157 2.707,0.01 4,0.5 38.585,24.569 74.919,52.236 109,83 9.912,9.908 19.079,20.408 27.5,31.5 11.758,18.509 22.04636,36.88108 32.28836,56.37208 6,8.667 12,17.333 18,26 27.738,25.783 55.572,51.45 83.5,77 21,-21.333 42,-42.667 63,-64 -6.89836,-26.35396 -21.4549,-59.35371 -7.82167,-78.29338 16.89787,-23.47499 22.66173,-34.20613 41.62579,-55.99268 58.23095,-66.89768 59.28906,-64.40484 69.91942,-60.48633 z"
       id="path66"
       sodipodi:nodetypes="csssccccccccccccccccccccccccccccccccccccccccccccccssc" />
  </g>
  <g
     id="g72" />
  <g
     id="g76"
     transform="translate(20)">
    <path
       style="opacity:1"
       fill="#040000"
       d="m 571.5,438.5 c 4.659,2.668 8.992,5.835 13,9.5 -34.662,36.221 -66.829,74.387 -96.5,114.5 -0.718,0.951 -1.551,1.117 -2.5,0.5 -2.833,-3.5 -5.667,-7 -8.5,-10.5 -0.418,-2.288 0.249,-4.288 2,-6 23.49,-31.498 48.49,-61.831 75,-91 5.729,-5.897 11.562,-11.564 17.5,-17 z"
       id="path74" />
  </g>
  <g
     id="g80"
     transform="translate(20)">
    <path
       style="opacity:1"
       fill="#030000"
       d="m 594.5,458.5 c 1.052,-0.149 2.052,0.017 3,0.5 3.667,3 7.333,6 11,9 1.829,1.113 2.663,2.613 2.5,4.5 -35.2,36.865 -70.033,74.032 -104.5,111.5 -0.667,0.667 -1.333,0.667 -2,0 -2.833,-2.833 -5.667,-5.667 -8.5,-8.5 -0.315,-1.408 0.018,-2.741 1,-4 18.044,-21.042 35.711,-42.375 53,-64 15.04,-16.204 29.873,-32.537 44.5,-49 z"
       id="path78" />
  </g>
  <g
     id="g84"
     transform="translate(20)">
    <path
       style="opacity:1"
       fill="#040000"
       d="m 625.5,485.5 c 5.575,4.067 10.741,8.734 15.5,14 0.667,0.667 0.667,1.333 0,2 -35.843,37.018 -73.343,72.018 -112.5,105 -3.519,-3.354 -7.186,-6.52 -11,-9.5 18.833,-20.167 38.333,-39.667 58.5,-58.5 16.338,-17.838 32.838,-35.504 49.5,-53 z"
       id="path82" />
  </g>
  <g
     id="g88"
     transform="translate(20)">
    <path
       style="opacity:1"
       fill="#040000"
       d="m 650.5,511.5 c 4.932,3.406 8.432,7.739 10.5,13 -12.77,14.772 -26.27,28.939 -40.5,42.5 -21.705,19.374 -43.705,38.374 -66,57 -5.408,-2.023 -10.408,-5.023 -15,-9 39.659,-31.486 76.659,-65.986 111,-103.5 z"
       id="path86" />
  </g>
  <g
     id="g92">
    <path
       style="opacity:1"
       fill="#050000"
       d="M 1146.5,1041.5 C 1147.97,1037.08 1148.64,1032.41 1148.5,1027.5C 1153.99,987.873 1167.83,951.54 1190,918.5C 1201.77,903.231 1215.6,890.231 1231.5,879.5C 1232.02,846.842 1232.02,814.175 1231.5,781.5C 1232.66,766.672 1232.83,751.672 1232,736.5C 1231.28,737.044 1230.78,737.711 1230.5,738.5C 1208.77,781.011 1174.1,806.177 1126.5,814C 1090.24,820.689 1055.24,816.689 1021.5,802C 970.614,777.388 953.114,737.888 969,683.5C 986.702,644.214 1016.54,619.381 1058.5,609C 1076.92,604.681 1095.58,603.347 1114.5,605C 1146.86,608.717 1179.19,612.717 1211.5,617C 1267.47,622.492 1323.14,620.159 1378.5,610C 1412.87,603.772 1444.54,591.106 1473.5,572C 1480.19,566.652 1485.36,560.152 1489,552.5C 1490.46,544.294 1490.96,536.127 1490.5,528C 1493.03,527.104 1495.19,527.604 1497,529.5C 1504.53,544.138 1503.86,558.471 1495,572.5C 1484.6,587.239 1471.43,598.739 1455.5,607C 1382.6,634.879 1307.27,644.212 1229.5,635C 1198.29,629.466 1166.96,624.799 1135.5,621C 1120.5,620.333 1105.5,620.333 1090.5,621C 1047.04,625.819 1014.88,647.319 994,685.5C 981.551,714.469 984.884,741.469 1004,766.5C 1019.84,782.007 1038.68,792.174 1060.5,797C 1124.32,815.727 1175.82,798.56 1215,745.5C 1219.67,738.167 1224.33,730.833 1229,723.5C 1230,715.167 1231,706.833 1232,698.5C 1236.48,695.25 1238.98,696.417 1239.5,702C 1239.05,704.986 1238.71,707.986 1238.5,711C 1241.21,742.827 1244.04,774.66 1247,806.5C 1248.53,826.807 1249.37,847.14 1249.5,867.5C 1269.41,857.772 1290.41,851.605 1312.5,849C 1332.51,848.524 1352.51,847.857 1372.5,847C 1396.05,814.897 1426.05,790.897 1462.5,775C 1476.18,770.642 1489.18,771.975 1501.5,779C 1512.2,788.09 1516.36,799.59 1514,813.5C 1510.48,828.344 1502.31,839.844 1489.5,848C 1475.74,855.476 1461.07,860.143 1445.5,862C 1424.21,863.905 1402.88,864.905 1381.5,865C 1350.16,904.525 1330.99,949.358 1324,999.5C 1321.82,1024.96 1327.16,1048.62 1340,1070.5C 1356.57,1089.82 1376.74,1094.65 1400.5,1085C 1412.18,1079.57 1422.35,1072.07 1431,1062.5C 1441.44,1041.18 1449.11,1018.85 1454,995.5C 1456.67,992.833 1459.33,992.833 1462,995.5C 1458.84,1014.12 1455.5,1032.79 1452,1051.5C 1446.67,1070.99 1440.84,1090.32 1434.5,1109.5C 1454.5,1107.25 1473.5,1101.75 1491.5,1093C 1495.43,1088.9 1499.43,1085.07 1503.5,1081.5C 1505.88,1082.5 1506.88,1084.33 1506.5,1087C 1504.99,1094.34 1500.99,1100.01 1494.5,1104C 1489.83,1106.67 1485.17,1109.33 1480.5,1112C 1462.41,1119.14 1444.08,1125.47 1425.5,1131C 1409.89,1163.74 1391.39,1194.57 1370,1223.5C 1359.32,1236.53 1345.82,1245.03 1329.5,1249C 1307.46,1250.88 1293.62,1241.05 1288,1219.5C 1286.07,1202.97 1290.4,1188.3 1301,1175.5C 1320.87,1155.47 1344.03,1140.3 1370.5,1130C 1383.87,1124.48 1397.54,1119.82 1411.5,1116C 1414.89,1109.84 1417.05,1103.34 1418,1096.5C 1397.28,1109.89 1375.11,1113.06 1351.5,1106C 1334.48,1098.98 1321.98,1087.14 1314,1070.5C 1304.72,1048.76 1301.39,1026.09 1304,1002.5C 1309.47,972.415 1319.14,943.748 1333,916.5C 1341.53,899.267 1350.7,882.433 1360.5,866C 1344.19,866.203 1327.85,866.536 1311.5,867C 1290.39,869.758 1270.72,876.592 1252.5,887.5C 1252.17,890.667 1251.83,893.833 1251.5,897C 1254.18,955.813 1256.35,1014.65 1258,1073.5C 1258.67,1118.5 1258.67,1163.5 1258,1208.5C 1257,1218.5 1256,1228.5 1255,1238.5C 1252.45,1252.25 1249.78,1265.92 1247,1279.5C 1256.91,1292.58 1268.08,1304.58 1280.5,1315.5C 1299.29,1299.26 1319.95,1285.76 1342.5,1275C 1368.48,1264.06 1395.48,1260.39 1423.5,1264C 1445.61,1266.11 1466.61,1272.11 1486.5,1282C 1504.43,1293 1515.59,1308.83 1520,1329.5C 1523.82,1349.33 1521.49,1368.33 1513,1386.5C 1505.02,1399.41 1493.52,1407.25 1478.5,1410C 1450.94,1412.45 1423.94,1409.45 1397.5,1401C 1354.92,1389.72 1316.92,1370.05 1283.5,1342C 1282.24,1341.02 1280.91,1340.68 1279.5,1341C 1270.99,1349.35 1262.65,1357.85 1254.5,1366.5C 1272.89,1397.5 1285.06,1430.83 1291,1466.5C 1299.24,1503.95 1300.57,1541.61 1295,1579.5C 1287.73,1612.44 1267.89,1633.27 1235.5,1642C 1205.49,1645.41 1182.66,1634.25 1167,1608.5C 1154.7,1585.23 1149.2,1560.4 1150.5,1534C 1150.43,1505.43 1156.6,1478.26 1169,1452.5C 1186.09,1419.91 1207.26,1390.24 1232.5,1363.5C 1226.06,1353.63 1218.89,1344.29 1211,1335.5C 1176.86,1366.45 1136.69,1384.29 1090.5,1389C 1050.09,1393.08 1012.76,1384.41 978.5,1363C 961.244,1351.31 949.744,1335.48 944,1315.5C 940.391,1285.56 952.891,1265.72 981.5,1256C 1044.84,1241.14 1105.84,1247.81 1164.5,1276C 1180.85,1284.35 1195.51,1295.01 1208.5,1308C 1210.37,1308.71 1211.87,1308.21 1213,1306.5C 1218.67,1298.5 1222.67,1289.83 1225,1280.5C 1202.38,1250.29 1183.05,1217.95 1167,1183.5C 1148.06,1137.98 1141.22,1090.65 1146.5,1041.5 Z"
       id="path90" />
  </g>
  <g
     id="g100">
    <path
       style="opacity:1"
       fill="#050000"
       d="M 1601.5,610.5 C 1603.92,610.192 1606.26,610.526 1608.5,611.5C 1609.9,613.277 1611.4,614.944 1613,616.5C 1615.93,863.493 1617.26,1110.49 1617,1357.5C 1614.04,1363.19 1609.54,1364.86 1603.5,1362.5C 1602.08,1360.66 1600.91,1358.66 1600,1356.5C 1597.72,1109.17 1596.39,861.837 1596,614.5C 1597.5,612.531 1599.33,611.198 1601.5,610.5 Z"
       id="path98" />
  </g>
  <g
     id="g104"
     style="fill:#050000;fill-opacity:1">
    <path
       style="opacity:1;fill:#050000;fill-opacity:1"
       fill="#520901"
       d="M 1231.5,781.5 C 1231.83,766.99 1231.5,752.657 1230.5,738.5C 1230.78,737.711 1231.28,737.044 1232,736.5C 1232.83,751.672 1232.66,766.672 1231.5,781.5 Z"
       id="path102" />
  </g>
  <g
     id="g108">
    <path
       style="opacity:1"
       fill="#c11504"
       d="M 1468.5,794.5 C 1490.85,791.567 1497.35,800.234 1488,820.5C 1481.91,828.581 1474.08,834.414 1464.5,838C 1442.31,844.614 1419.64,847.281 1396.5,846C 1416.19,822.668 1440.19,805.502 1468.5,794.5 Z"
       id="path106" />
  </g>
  <g
     id="g112">
    <path
       style="opacity:1"
       fill="#c21504"
       d="M 1233.5,899.5 C 1239.21,999.263 1241.71,1099.26 1241,1199.5C 1239.8,1219.74 1236.97,1239.74 1232.5,1259.5C 1209.89,1228.96 1191.39,1195.96 1177,1160.5C 1164.56,1125.92 1161.06,1090.42 1166.5,1054C 1169.63,1023.71 1176.13,994.208 1186,965.5C 1191.03,952.447 1197.36,940.113 1205,928.5C 1214.03,918.301 1223.53,908.635 1233.5,899.5 Z"
       id="path110" />
  </g>
  <g
     id="g116">
    <path
       style="opacity:1"
       fill="#7b0d02"
       d="M 856.5,372.5 C 1133.67,371.5 1411,371.167 1688.5,371.5C 1688.83,700 1688.5,1028.33 1687.5,1356.5C 1687.5,1028.5 1687.5,700.5 1687.5,372.5C 1410.5,372.5 1133.5,372.5 856.5,372.5 Z"
       id="path114" />
  </g>
  <g
     id="g120">
    <path
       style="opacity:1"
       fill="#350c01"
       d="M 1148.5,1027.5 C 1148.64,1032.41 1147.97,1037.08 1146.5,1041.5C 1146.36,1036.59 1147.03,1031.92 1148.5,1027.5 Z"
       id="path118" />
  </g>
  <g
     id="g124"
     transform="translate(20)">
    <path
       style="opacity:1"
       fill="#c01504"
       d="m 394.5,1120.5 c 7.674,-0.17 15.341,0 23,0.5 4.792,0.22 9.459,1.05 14,2.5 -12,9 -24,18 -36,27 -6.827,-8.33 -13.493,-16.83 -20,-25.5 6.253,-2.15 12.587,-3.65 19,-4.5 z"
       id="path122" />
  </g>
  <g
     id="g128"
     transform="translate(20)">
    <path
       style="opacity:1"
       fill="#c21504"
       d="m 440.5,1126.5 c 6.353,0.84 12.353,2.84 18,6 9.91,12.82 19.577,25.82 29,39 -16.116,12.56 -32.449,24.9 -49,37 -13.386,-16.43 -26.052,-33.43 -38,-51 13.352,-10.36 26.685,-20.69 40,-31 z"
       id="path126" />
  </g>
  <g
     id="g132"
     transform="translate(20)">
    <path
       style="opacity:1"
       fill="#c11504"
       d="m 365.5,1126.5 c 1.517,0.01 2.684,0.68 3.5,2 6.114,9.11 12.614,17.95 19.5,26.5 -19.551,15.22 -39.384,30.05 -59.5,44.5 -9.5,-12.83 -19,-25.67 -28.5,-38.5 19.699,-15.18 41.366,-26.68 65,-34.5 z"
       id="path130" />
  </g>
  <g
     id="g136">
    <path
       style="opacity:1"
       fill="#c21504"
       d="M 1398.5,1136.5 C 1400.2,1136.34 1401.87,1136.51 1403.5,1137C 1394.02,1160.46 1381.86,1182.3 1367,1202.5C 1359.22,1212.29 1349.72,1219.79 1338.5,1225C 1317.07,1231.86 1307.24,1224.03 1309,1201.5C 1313.79,1186.44 1322.62,1174.27 1335.5,1165C 1355.01,1152.11 1376.01,1142.61 1398.5,1136.5 Z"
       id="path134" />
  </g>
  <g
     id="g140"
     transform="translate(20)">
    <path
       style="opacity:1"
       fill="#b81404"
       d="m 475.5,1141.5 c 8.577,5.74 16.743,12.07 24.5,19 -0.593,3.59 -2.76,5.42 -6.5,5.5 -6.242,-8.06 -12.242,-16.23 -18,-24.5 z"
       id="path138" />
  </g>
  <g
     id="g144"
     transform="translate(20)">
    <path
       style="opacity:1"
       fill="#c21504"
       d="m 391.5,1162.5 c 1.322,-0.17 2.489,0.16 3.5,1 11.801,16.77 23.967,33.27 36.5,49.5 -19.551,15.22 -39.384,30.05 -59.5,44.5 -12.5,-17 -25,-34 -37.5,-51 19.019,-14.69 38.019,-29.36 57,-44 z"
       id="path142" />
  </g>
  <g
     id="g148"
     transform="translate(20)">
    <path
       style="opacity:1"
       fill="#c11504"
       d="m 293.5,1166.5 c 10.131,11.99 19.797,24.49 29,37.5 -18.859,14.36 -37.859,28.53 -57,42.5 -1.971,-1.77 -3.304,-3.94 -4,-6.5 3.708,-18.2 9.541,-35.7 17.5,-52.5 4.36,-7.41 9.193,-14.41 14.5,-21 z"
       id="path146" />
  </g>
  <g
     id="g152"
     transform="translate(20)">
    <path
       style="opacity:1"
       fill="#be1504"
       d="m 506.5,1167.5 c 17.83,17.26 31.497,37.6 41,61 -1.365,1.44 -2.865,2.77 -4.5,4 -14,-18.67 -28,-37.33 -42,-56 -0.982,-1.26 -1.315,-2.59 -1,-4 2.352,-1.53 4.519,-3.2 6.5,-5 z"
       id="path150" />
  </g>
  <g
     id="g156">
    <path
       style="opacity:1"
       fill="#999999"
       d="M 528.5,1176.5 C 527.833,1176.5 527.5,1176.83 527.5,1177.5C 525.066,1174.56 522.399,1171.73 519.5,1169C 523.143,1170.45 526.143,1172.95 528.5,1176.5 Z"
       id="path154" />
  </g>
  <g
     id="g160"
     transform="translate(20)">
    <path
       style="opacity:1"
       fill="#f9f9f9"
       d="m 528.5,1176.5 c 32.029,30.06 50.862,67.06 56.5,111 5.715,69.33 -4.951,136 -32,200 -22.321,46.65 -55.488,83.49 -99.5,110.5 -21.836,12.05 -44.836,20.72 -69,26 33.13,-13.72 62.797,-32.72 89,-57 61.219,-55.94 95.052,-125.44 101.5,-208.5 3.626,-45.91 -3.041,-90.24 -20,-133 -7.395,-17.14 -16.562,-33.14 -27.5,-48 0,-0.67 0.333,-1 1,-1 z"
       id="path158" />
  </g>
  <g
     id="g164"
     transform="translate(20)">
    <path
       style="opacity:1"
       fill="#c21504"
       d="m 491.5,1178.5 c 1.693,0.97 3.193,2.31 4.5,4 13.378,18.26 26.878,36.42 40.5,54.5 -16.229,12.57 -32.729,24.73 -49.5,36.5 -15.201,-18.7 -29.701,-38.04 -43.5,-58 16.019,-12.36 32.019,-24.69 48,-37 z"
       id="path162" />
  </g>
  <g
     id="g168"
     transform="translate(20)">
    <path
       style="opacity:1"
       fill="#c21504"
       d="m 325.5,1211.5 c 1.322,-0.17 2.489,0.16 3.5,1 11.801,16.77 23.967,33.27 36.5,49.5 -18.859,14.36 -37.859,28.53 -57,42.5 -12.899,-16.78 -25.565,-33.78 -38,-51 18.352,-14.02 36.685,-28.02 55,-42 z"
       id="path166" />
  </g>
  <g
     id="g172"
     transform="translate(20)">
    <path
       style="opacity:1"
       fill="#c21504"
       d="m 434.5,1220.5 c 1.322,-0.17 2.489,0.16 3.5,1 13.833,19 27.667,38 41.5,57 -19.062,15.23 -38.562,29.89 -58.5,44 -14.874,-19.21 -29.374,-38.71 -43.5,-58.5 19.037,-14.51 38.037,-29.01 57,-43.5 z"
       id="path170" />
  </g>
  <g
     id="g176">
    <path
       style="opacity:1"
       fill="#a21205"
       d="M 548.5,1237.5 C 549.496,1237.41 550.329,1237.75 551,1238.5C 552.513,1241.02 553.18,1243.69 553,1246.5C 551.167,1244 549.333,1241.5 547.5,1239C 548.056,1238.62 548.389,1238.12 548.5,1237.5 Z"
       id="path174" />
  </g>
  <g
     id="g180"
     transform="translate(20)">
    <path
       style="opacity:1"
       fill="#c21504"
       d="m 540.5,1243.5 c 6.636,8.15 13.136,16.48 19.5,25 5.612,21.67 7.946,43.67 7,66 -7.667,5.67 -15.333,11.33 -23,17 -17.693,-23.53 -35.193,-47.19 -52.5,-71 16.581,-12.11 32.914,-24.44 49,-37 z"
       id="path178" />
  </g>
  <g
     id="g184"
     transform="translate(20)">
    <path
       style="opacity:1"
       fill="#c11504"
       d="m 262.5,1258.5 c 0.996,-0.09 1.829,0.25 2.5,1 12.411,16.49 24.578,33.16 36.5,50 -18.027,14.02 -36.361,27.69 -55,41 -5.683,-6.35 -11.016,-13.02 -16,-20 6.139,-8.61 10.973,-17.94 14.5,-28 4.652,-12.43 8.485,-25.1 11.5,-38 1.688,-2.35 3.688,-4.35 6,-6 z"
       id="path182" />
  </g>
  <g
     id="g188">
    <path
       style="opacity:1"
       fill="#c31504"
       d="M 1042.5,1262.5 C 1103.09,1260.82 1155.09,1280.82 1198.5,1322.5C 1189.13,1332.35 1178.47,1340.52 1166.5,1347C 1142.59,1361.12 1116.93,1370.45 1089.5,1375C 1046.23,1380.25 1009.73,1367.08 980,1335.5C 970.492,1324.98 966.159,1312.64 967,1298.5C 971.08,1288.09 978.246,1280.59 988.5,1276C 1005.93,1268.76 1023.93,1264.26 1042.5,1262.5 Z"
       id="path186" />
  </g>
  <g
     id="g192"
     transform="translate(20)">
    <path
       style="opacity:1"
       fill="#c21504"
       d="m 368.5,1269.5 c 1.322,-0.17 2.489,0.16 3.5,1 13.833,19 27.667,38 41.5,57 -18.667,14.49 -37.501,28.83 -56.5,43 -14.5,-19.67 -29,-39.33 -43.5,-59 18.352,-14.02 36.685,-28.02 55,-42 z"
       id="path190" />
  </g>
  <g
     id="g196">
    <path
       style="opacity:1"
       fill="#c31504"
       d="M 1394.5,1277.5 C 1421.3,1274.96 1446.63,1279.79 1470.5,1292C 1481.61,1298.78 1489.44,1308.28 1494,1320.5C 1500.72,1341.24 1499.72,1361.58 1491,1381.5C 1484.7,1389.24 1476.53,1393.74 1466.5,1395C 1447.02,1397.79 1428.02,1395.79 1409.5,1389C 1367.2,1375.69 1328.87,1355.36 1294.5,1328C 1317.37,1307.56 1343.37,1292.23 1372.5,1282C 1379.91,1280.16 1387.24,1278.66 1394.5,1277.5 Z"
       id="path194" />
  </g>
  <g
     id="g200"
     transform="translate(20)">
    <path
       style="opacity:1"
       fill="#c21504"
       d="m 483.5,1285.5 c 0.996,-0.09 1.829,0.25 2.5,1 17.167,23.17 34.333,46.33 51.5,69.5 -19.551,15.22 -39.384,30.05 -59.5,44.5 -17.693,-23.53 -35.193,-47.19 -52.5,-71 19.66,-14.34 38.993,-29 58,-44 z"
       id="path198" />
  </g>
  <g
     id="g204">
    <path
       style="opacity:1"
       fill="#bf1504"
       d="M 1237.5,1297.5 C 1247.26,1307.43 1256.93,1317.6 1266.5,1328C 1259.71,1335.79 1252.54,1343.29 1245,1350.5C 1238.41,1340.74 1231.24,1331.41 1223.5,1322.5C 1229.07,1314.62 1233.74,1306.28 1237.5,1297.5 Z"
       id="path202" />
  </g>
  <g
     id="g208"
     transform="translate(20)">
    <path
       style="opacity:1"
       fill="#c21504"
       d="m 305.5,1316.5 c 0.996,-0.09 1.829,0.25 2.5,1 13.801,19.43 27.967,38.6 42.5,57.5 -18.526,14.03 -37.192,27.86 -56,41.5 -14.667,-19.67 -29.333,-39.33 -44,-59 18.58,-13.44 36.913,-27.11 55,-41 z"
       id="path206" />
  </g>
  <g
     id="g212"
     transform="translate(20)">
    <path
       style="opacity:1"
       fill="#c21504"
       d="m 417.5,1334.5 c 1.517,0.01 2.684,0.68 3.5,2 16.833,22.83 33.667,45.67 50.5,68.5 -18.859,14.36 -37.859,28.53 -57,42.5 -17.777,-23.37 -35.443,-46.87 -53,-70.5 18.851,-14.03 37.518,-28.2 56,-42.5 z"
       id="path210" />
  </g>
  <g
     id="g216"
     transform="translate(20)">
    <path
       style="opacity:1"
       fill="#c01504"
       d="m 224.5,1337.5 c 0.996,-0.09 1.829,0.25 2.5,1 4.564,5.85 8.564,11.85 12,18 -22.833,16.83 -45.667,33.67 -68.5,50.5 -0.667,0.67 -1.333,0.67 -2,0 -2.803,-4.44 -5.969,-8.6 -9.5,-12.5 -0.52,-1.79 -0.187,-3.46 1,-5 4.167,-3.5 8.333,-7 12.5,-10.5 13.216,-7.89 25.882,-16.55 38,-26 5.266,-4.76 9.933,-9.93 14,-15.5 z"
       id="path214" />
  </g>
  <g
     id="g220"
     transform="translate(20)">
    <path
       style="opacity:1"
       fill="#bf1504"
       d="m 566.5,1344.5 c 0.483,11.24 -0.351,22.57 -2.5,34 -5.078,-6.49 -9.911,-13.16 -14.5,-20 5.513,-4.91 11.18,-9.58 17,-14 z"
       id="path218" />
  </g>
  <g
     id="g224"
     transform="translate(20)">
    <path
       style="opacity:1"
       fill="#bf1504"
       d="m 243.5,1362.5 c 15.202,19.04 29.869,38.54 44,58.5 -4.526,4.19 -9.359,8.02 -14.5,11.5 -8.309,-28.91 -27.476,-42.08 -57.5,-39.5 -15.847,4.01 -28.347,12.85 -37.5,26.5 -3.258,-2.24 -3.758,-4.74 -1.5,-7.5 22.516,-16.36 44.849,-32.86 67,-49.5 z"
       id="path222" />
  </g>
  <g
     id="g228"
     transform="translate(20)">
    <path
       style="opacity:1"
       fill="#c21504"
       d="m 540.5,1363.5 c 1.322,-0.17 2.489,0.16 3.5,1 5.423,7.84 11.089,15.51 17,23 0.923,1.53 1.423,3.2 1.5,5 -4.15,21.6 -10.317,42.6 -18.5,63 -5.589,3.88 -11.089,7.88 -16.5,12 -14.794,-20.1 -29.461,-40.26 -44,-60.5 19.037,-14.51 38.037,-29.01 57,-43.5 z"
       id="path226" />
  </g>
  <g
     id="g232">
    <path
       style="opacity:1"
       fill="#c31504"
       d="M 1241.5,1380.5 C 1269.06,1428.07 1283.23,1479.4 1284,1534.5C 1284.16,1557.86 1277.83,1579.2 1265,1598.5C 1244.21,1621.59 1220.71,1625.09 1194.5,1609C 1176.74,1591.63 1166.9,1570.47 1165,1545.5C 1161.92,1513.65 1168.59,1483.98 1185,1456.5C 1201.35,1429.31 1220.19,1403.98 1241.5,1380.5 Z"
       id="path230" />
  </g>
  <g
     id="g236"
     transform="translate(20)">
    <path
       style="opacity:1"
       fill="#c21504"
       d="m 354.5,1381.5 c 17.996,23.34 35.663,47.01 53,71 -18.051,14.05 -36.384,27.72 -55,41 -18.141,-22.94 -35.808,-46.27 -53,-70 18.352,-14.02 36.685,-28.02 55,-42 z"
       id="path234" />
  </g>
  <g
     id="g240"
     transform="translate(20)">
    <path
       style="opacity:1"
       fill="#bc1504"
       d="m 152.5,1399.5 c 3.555,4.08 6.889,8.42 10,13 -7.667,6.16 -15.5,12.16 -23.5,18 2.818,-10.98 7.318,-21.31 13.5,-31 z"
       id="path238" />
  </g>
  <g
     id="g244"
     transform="translate(20)">
    <path
       style="opacity:1"
       fill="#fcfcfc"
       d="m 215.5,1401.5 c 26.534,-2.34 42.701,9.32 48.5,35 -8.774,-6.99 -18.607,-8.83 -29.5,-5.5 -17.821,7.16 -29.321,19.99 -34.5,38.5 -2.928,15.24 2.239,26.74 15.5,34.5 -18.519,-1.2 -30.686,-10.7 -36.5,-28.5 -7.228,-26.95 -0.061,-49.12 21.5,-66.5 4.813,-3.07 9.813,-5.57 15,-7.5 z"
       id="path242" />
  </g>
  <g
     id="g248"
     style="fill:#c31504;fill-opacity:1">
    <path
       style="opacity:1;fill:#c31504;fill-opacity:1"
       fill="#5e0a02"
       d="M 1615.5,1404.5 C 1609.89,1402.23 1605.39,1403.56 1602,1408.5C 1601.4,1411.22 1601.57,1413.89 1602.5,1416.5C 1599.26,1411.32 1600.26,1406.82 1605.5,1403C 1608.5,1402.33 1611.5,1402.33 1614.5,1403C 1615.06,1403.38 1615.39,1403.88 1615.5,1404.5 Z"
       id="path246" />
  </g>
  <g
     id="g252">
    <path
       style="opacity:1"
       fill="#0b0100"
       d="m 1615.5,1404.5 c 2.73,3.43 4.023,7.5974 3.293,12.1674 -0.8546,1.587 -1.9753,2.917 -4,4 -5.33,1.95 -9.623,0.4426 -12.293,-4.1674 -0.93,-2.61 -1.1,-5.28 -0.5,-8 3.39,-4.94 7.89,-6.27 13.5,-4 z"
       id="path250"
       sodipodi:nodetypes="cccccc" />
  </g>
  <g
     id="g256"
     style="fill:#0b0100;fill-opacity:1">
    <path
       style="opacity:1;fill:#0b0100;fill-opacity:1"
       fill="#4c0b02"
       d="m 1615.5,1404.5 c 3.4845,2.2802 4.2838,4.4449 3.9767,8.9953 -0.28,0.92 -0.2986,3.108 -1.0186,3.528 0.73,-4.57 -0.2281,-9.0933 -2.9581,-12.5233 z"
       id="path254"
       sodipodi:nodetypes="cccc" />
  </g>
  <g
     id="g260"
     transform="translate(20)">
    <path
       style="opacity:1"
       fill="#c21504"
       d="m 474.5,1412.5 c 1.322,-0.17 2.489,0.16 3.5,1 13.974,19.47 28.14,38.81 42.5,58 -18.345,14.93 -37.179,29.26 -56.5,43 -15.077,-19.82 -29.91,-39.82 -44.5,-60 18.352,-14.02 36.685,-28.02 55,-42 z"
       id="path258" />
  </g>
  <g
     id="g264"
     transform="translate(20)">
    <path
       style="opacity:1"
       fill="#c21504"
       d="m 166.5,1419.5 c 3.153,2 5.487,4.84 7,8.5 -6.082,14.66 -7.582,29.83 -4.5,45.5 2.331,9 6.498,17 12.5,24 -9.601,8.14 -19.601,15.81 -30,23 -6.944,-9.45 -14.111,-18.79 -21.5,-28 -1.427,-16.26 -0.094,-32.26 4,-48 10.992,-8.23 21.826,-16.57 32.5,-25 z"
       id="path262" />
  </g>
  <g
     id="g268"
     transform="translate(20)">
    <path
       style="opacity:1"
       fill="#c21504"
       d="m 290.5,1428.5 c 2.403,-0.11 4.236,0.89 5.5,3 16.307,22.47 32.807,44.81 49.5,67 -23.051,17.72 -46.385,35.05 -70,52 -11.475,-14.27 -22.475,-28.94 -33,-44 22.643,-15.95 33.643,-37.95 33,-66 5.252,-3.78 10.252,-7.78 15,-12 z"
       id="path266" />
  </g>
  <g
     id="g272"
     transform="translate(20)">
    <path
       style="opacity:1"
       fill="#c21504"
       d="m 411.5,1459.5 c 0.996,-0.09 1.829,0.25 2.5,1 14.115,19.78 28.615,39.28 43.5,58.5 -18.488,14.08 -37.155,27.91 -56,41.5 -15,-20 -30,-40 -45,-60 18.58,-13.44 36.913,-27.11 55,-41 z"
       id="path270" />
  </g>
  <g
     id="g276">
    <path
       style="opacity:1"
       fill="#a31205"
       d="M 535.5,1470.5 C 536.239,1470.37 536.906,1470.54 537.5,1471C 536.458,1472.92 535.292,1474.75 534,1476.5C 533.626,1475.58 533.126,1474.75 532.5,1474C 533.71,1472.96 534.71,1471.79 535.5,1470.5 Z"
       id="path274" />
  </g>
  <g
     id="g280"
     transform="translate(20)">
    <path
       style="opacity:1"
       fill="#c01504"
       d="m 524.5,1478.5 c 2.124,0.53 3.624,1.86 4.5,4 0.667,1.33 0.667,2.67 0,4 -12.075,20.8 -26.575,39.8 -43.5,57 -5.859,-7.36 -11.525,-14.86 -17,-22.5 18.915,-13.94 37.581,-28.11 56,-42.5 z"
       id="path278" />
  </g>
  <g
     id="g284"
     transform="translate(20)">
    <path
       style="opacity:1"
       fill="#c21504"
       d="m 187.5,1503.5 c 14.534,10.73 30.2,12.73 47,6 11.719,15.05 23.052,30.39 34,46 -19.372,14.78 -38.872,29.44 -58.5,44 -18.026,-23.86 -35.859,-47.86 -53.5,-72 10.183,-8.25 20.516,-16.25 31,-24 z"
       id="path282" />
  </g>
  <g
     id="g288"
     transform="translate(20)">
    <path
       style="opacity:1"
       fill="#c21504"
       d="m 349.5,1505.5 c 15.714,19.39 30.714,39.39 45,60 -23.002,17.49 -46.168,34.83 -69.5,52 -15.412,-19.58 -30.245,-39.58 -44.5,-60 22.851,-17.59 45.851,-34.92 69,-52 z"
       id="path286" />
  </g>
  <g
     id="g292"
     transform="translate(20)">
    <path
       style="opacity:1"
       fill="#b71404"
       d="m 132.5,1509.5 c 4.329,5.01 8.329,10.34 12,16 -1.667,1.33 -3.333,2.67 -5,4 -3.123,-6.37 -5.456,-13.03 -7,-20 z"
       id="path290" />
  </g>
  <g
     id="g296"
     transform="translate(20)">
    <path
       style="opacity:1"
       fill="#c11504"
       d="m 460.5,1526.5 c 1.175,-0.22 2.175,0.11 3,1 5.526,7.03 10.859,14.19 16,21.5 -16.374,16.72 -34.207,31.55 -53.5,44.5 -7.279,-8.57 -13.612,-17.57 -19,-27 18.017,-13.2 35.85,-26.53 53.5,-40 z"
       id="path294" />
  </g>
  <g
     id="g300"
     transform="translate(20)">
    <path
       style="opacity:1"
       fill="#bc1504"
       d="m 147.5,1532.5 c 1.89,-0.2 3.39,0.46 4.5,2 15.756,21.84 31.756,43.51 48,65 0.688,0.83 0.521,1.5 -0.5,2 -23.937,-16.94 -42.937,-38.27 -57,-64 1.894,-1.45 3.56,-3.11 5,-5 z"
       id="path298" />
  </g>
  <g
     id="g304"
     transform="translate(20)">
    <path
       style="opacity:1"
       fill="#c11504"
       d="m 272.5,1562.5 c 0.996,-0.09 1.829,0.25 2.5,1 13.756,19.18 27.756,38.18 42,57 0.667,1 0.667,2 0,3 -3.922,2.71 -7.756,5.54 -11.5,8.5 -29.982,1.75 -58.315,-4.25 -85,-18 -2,-2.67 -4,-5.33 -6,-8 19.234,-14.75 38.568,-29.25 58,-43.5 z"
       id="path302" />
  </g>
  <g
     id="g308"
     transform="translate(20)">
    <path
       style="opacity:1"
       fill="#c11504"
       d="m 398.5,1572.5 c 1.517,0.01 2.684,0.68 3.5,2 5.5,7.67 11,15.33 16.5,23 -14.789,9.89 -30.789,17.39 -48,22.5 -11.474,3.62 -23.141,6.45 -35,8.5 -2.412,0.09 -4.245,-0.91 -5.5,-3 -0.617,-0.95 -0.451,-1.78 0.5,-2.5 22.85,-16.7 45.516,-33.53 68,-50.5 z"
       id="path306" />
  </g>
  <g
     id="g312"
     style="fill:#000000;fill-opacity:1">
    <path
       style="opacity:1;fill:#000000;fill-opacity:1"
       fill="#340600"
       d="M 856.5,1586.5 C 855.835,1768.84 856.501,1950.84 858.5,2132.5C 857.791,2133.4 856.791,2133.74 855.5,2133.5C 855.167,1951 855.5,1768.67 856.5,1586.5 Z"
       id="path310" />
  </g>
</svg>
